<svg width="14" height="16" viewBox="0 0 14 16" fill="none" xmlns="http://www.w3.org/2000/svg">
<path d="M8.003 0.476126C7.72768 0.22876 7.37062 0.0919189 7.0005 0.0919189C6.63038 0.0919189 6.27332 0.22876 5.998 0.476126L0.498 5.41813C0.341441 5.55866 0.216195 5.73056 0.130399 5.92265C0.0446024 6.11475 0.00017425 6.32274 0 6.53313V13.5881C0 13.986 0.158035 14.3675 0.43934 14.6488C0.720644 14.9301 1.10218 15.0881 1.5 15.0881H3.5C3.89782 15.0881 4.27936 14.9301 4.56066 14.6488C4.84196 14.3675 5 13.986 5 13.5881V9.58813C5 9.45552 5.05268 9.32834 5.14645 9.23457C5.24021 9.1408 5.36739 9.08813 5.5 9.08813H8.5C8.63261 9.08813 8.75979 9.1408 8.85355 9.23457C8.94732 9.32834 9 9.45552 9 9.58813V13.5881C9 13.986 9.15804 14.3675 9.43934 14.6488C9.72064 14.9301 10.1022 15.0881 10.5 15.0881H12.5C12.8978 15.0881 13.2794 14.9301 13.5607 14.6488C13.842 14.3675 14 13.986 14 13.5881V6.53313C14 6.32282 13.9557 6.11487 13.8701 5.92278C13.7844 5.73069 13.6594 5.55875 13.503 5.41813L8.003 0.476126Z" fill="#F68310"/>
</svg>
