<svg width="40" height="41" viewBox="0 0 40 41" fill="none" xmlns="http://www.w3.org/2000/svg">
<path d="M8.75 19.1418H33.75C34.0815 19.1418 34.3995 19.2735 34.6339 19.508C34.8683 19.7424 35 20.0603 35 20.3918C35 20.7234 34.8683 21.0413 34.6339 21.2757C34.3995 21.5102 34.0815 21.6418 33.75 21.6418H8.75C8.41848 21.6418 8.10054 21.5102 7.86612 21.2757C7.6317 21.0413 7.5 20.7234 7.5 20.3918C7.5 20.0603 7.6317 19.7424 7.86612 19.508C8.10054 19.2735 8.41848 19.1418 8.75 19.1418Z" fill="#3267E3"/>
<path d="M9.26778 20.392L19.6353 30.757C19.87 30.9917 20.0019 31.31 20.0019 31.642C20.0019 31.9739 19.87 32.2922 19.6353 32.527C19.4006 32.7617 19.0822 32.8935 18.7503 32.8935C18.4183 32.8935 18.1 32.7617 17.8653 32.527L6.61528 21.277C6.49887 21.1608 6.40652 21.0229 6.3435 20.871C6.28048 20.7192 6.24805 20.5564 6.24805 20.392C6.24805 20.2275 6.28048 20.0647 6.3435 19.9129C6.40652 19.761 6.49887 19.6231 6.61528 19.507L17.8653 8.25696C18.1 8.02224 18.4183 7.89038 18.7503 7.89038C19.0822 7.89038 19.4006 8.02224 19.6353 8.25696C19.87 8.49168 20.0019 8.81002 20.0019 9.14196C20.0019 9.4739 19.87 9.79224 19.6353 10.027L9.26778 20.392Z" fill="#3267E3"/>
</svg>
