<svg width="24" height="24" viewBox="0 0 24 24" fill="none" xmlns="http://www.w3.org/2000/svg">
<path d="M13.1901 19.0564C13.4618 18.8523 13.5166 18.4665 13.3126 18.1948C13.1084 17.923 12.7227 17.8682 12.451 18.0724L13.1901 19.0564ZM12.451 5.92764C12.7227 6.13176 13.1084 6.07694 13.3126 5.80519C13.5166 5.53345 13.4618 5.14768 13.1901 4.94356L12.451 5.92764ZM7.89744 11.3846C7.55757 11.3846 7.28206 11.6601 7.28206 12C7.28206 12.3399 7.55757 12.6154 7.89744 12.6154V11.3846ZM16.4849 8.23575C16.2186 8.02459 15.8315 8.0693 15.6203 8.33562C15.4092 8.60193 15.4539 8.989 15.7202 9.20015L16.4849 8.23575ZM15.7202 14.7998C15.4539 15.011 15.4092 15.3981 15.6203 15.6644C15.8315 15.9307 16.2186 15.9754 16.4849 15.7643L15.7202 14.7998ZM10.359 18.7692H9.53846V20H10.359V18.7692ZM5.23077 14.4615V9.53846H4.00001V14.4615H5.23077ZM9.53846 5.23078H10.359V4.00001H9.53846V5.23078ZM5.23077 9.53846C5.23077 8.75268 5.23269 8.43145 5.2737 8.17243L4.05809 7.9799C3.9981 8.3587 4.00001 8.79972 4.00001 9.53846H5.23077ZM9.53846 4.00001C8.79972 4.00001 8.3587 3.9981 7.9799 4.05809L8.17243 5.2737C8.43144 5.23269 8.75268 5.23078 9.53846 5.23078V4.00001ZM5.2737 8.17243C5.51004 6.6803 6.6803 5.51004 8.17243 5.2737L7.9799 4.05809C5.96113 4.37784 4.37784 5.96113 4.05809 7.9799L5.2737 8.17243ZM9.53846 18.7692C8.75268 18.7692 8.43144 18.7673 8.17243 18.7263L7.9799 19.9419C8.3587 20.0019 8.79972 20 9.53846 20V18.7692ZM4.00001 14.4615C4.00001 15.2002 3.9981 15.6413 4.05809 16.0201L5.2737 15.8275C5.23269 15.5686 5.23077 15.2473 5.23077 14.4615H4.00001ZM8.17243 18.7263C6.6803 18.4899 5.51004 17.3197 5.2737 15.8275L4.05809 16.0201C4.37784 18.0389 5.96113 19.6221 7.9799 19.9419L8.17243 18.7263ZM10.359 20C11.4204 20 12.4016 19.6487 13.1901 19.0564L12.451 18.0724C11.8681 18.5101 11.1447 18.7692 10.359 18.7692V20ZM10.359 5.23078C11.1447 5.23078 11.8681 5.48992 12.451 5.92764L13.1901 4.94356C12.4016 4.35124 11.4204 4.00001 10.359 4.00001V5.23078ZM7.89744 12.6154H18.5641V11.3846H7.89744V12.6154ZM15.7202 9.20015L17.1668 10.3471L17.9314 9.3827L16.4849 8.23575L15.7202 9.20015ZM17.1668 13.6529L15.7202 14.7998L16.4849 15.7643L17.9314 14.6173L17.1668 13.6529ZM17.1668 10.3471C17.7553 10.8138 18.1548 11.1317 18.4237 11.3996C18.6898 11.6647 18.7467 11.8041 18.7606 11.8911L19.976 11.6975C19.901 11.2272 19.6252 10.8592 19.2923 10.5276C18.9622 10.1988 18.4965 9.8307 17.9314 9.3827L17.1668 10.3471ZM17.9314 14.6173C18.4964 14.1693 18.9622 13.8013 19.2923 13.4724C19.6252 13.1408 19.901 12.7728 19.976 12.3025L18.7606 12.1089C18.7467 12.1959 18.6898 12.3353 18.4237 12.6005C18.1548 12.8683 17.7553 13.1862 17.1668 13.6529L17.9314 14.6173ZM18.7606 11.8911C18.7664 11.9275 18.7692 11.9638 18.7692 12H20C20 11.8987 19.992 11.7977 19.976 11.6975L18.7606 11.8911ZM18.7692 12C18.7692 12.0362 18.7664 12.0725 18.7606 12.1089L19.976 12.3025C19.992 12.2023 20 12.1013 20 12H18.7692ZM18.5641 12.6154H19.3846V11.3846H18.5641V12.6154Z" fill="#898989"/>
</svg>
