<svg width="24" height="24" viewBox="0 0 24 24" fill="none" xmlns="http://www.w3.org/2000/svg">
<path d="M11 18H13V21H11V18ZM16 21V23H8V21H16ZM20 18H4C3.20459 17.9992 2.44199 17.6829 1.87956 17.1204C1.31712 16.558 1.00079 15.7954 1 15V4C1.00079 3.20459 1.31712 2.44199 1.87956 1.87956C2.44199 1.31712 3.20459 1.00079 4 1H20C20.7954 1.00079 21.558 1.31712 22.1204 1.87956C22.6829 2.44199 22.9992 3.20459 23 4V15C22.9992 15.7954 22.6829 16.558 22.1204 17.1204C21.558 17.6829 20.7954 17.9992 20 18ZM4 3C3.73478 3 3.48043 3.10536 3.29289 3.29289C3.10536 3.48043 3 3.73478 3 4V15C3 15.2652 3.10536 15.5196 3.29289 15.7071C3.48043 15.8946 3.73478 16 4 16H20C20.2652 16 20.5196 15.8946 20.7071 15.7071C20.8946 15.5196 21 15.2652 21 15V4C21 3.73478 20.8946 3.48043 20.7071 3.29289C20.5196 3.10536 20.2652 3 20 3H4Z" fill="#9E9E9E"/>
<path d="M16 15L14.086 8.62L13 13L11.691 10H11.36L10 14L8.843 9.933L8.309 11H5V10H7.691L9 7L10.068 10.713L10.64 9H12.309L12.796 9.973L14 4L16 12L16.64 10H19V11H17.36L16 15Z" fill="#9E9E9E"/>
</svg>
